<?xml version="1.0" encoding="utf-8"?>
<!-- Generator: Adobe Illustrator 16.0.0, SVG Export Plug-In . SVG Version: 6.00 Build 0)  -->
<!DOCTYPE svg PUBLIC "-//W3C//DTD SVG 1.1//EN" "http://www.w3.org/Graphics/SVG/1.1/DTD/svg11.dtd">
<svg version="1.1" xmlns="http://www.w3.org/2000/svg" xmlns:xlink="http://www.w3.org/1999/xlink" x="0px" y="0px"
	 width="385.604px" height="391.667px" viewBox="0 0 385.604 391.667" enable-background="new 0 0 385.604 391.667"
	 xml:space="preserve">
<g id="Layer_3" display="none">
	<rect display="inline" width="385.604" height="391.667"/>
</g>
<g id="Layer_2">
	<path fill="none" stroke="#FFFFFF" stroke-width="10" stroke-linecap="round" stroke-linejoin="round" d="M48.339,316.503
		l5.533-183.051c0,0,28.821-7.048,83.736-11.331s181.619-0.225,204.049,15.504c19.866,13.931,1.614,163.804-12.922,181.032
		C316.381,333.299,65.491,318.118,48.339,316.503z"/>
	
		<ellipse transform="matrix(0.9969 0.0788 -0.0788 0.9969 19.2313 -9.4931)" fill="#FFFFFF" stroke="#FFFFFF" stroke-miterlimit="10" cx="129.902" cy="238.932" rx="13.998" ry="22.037"/>
	
		<ellipse transform="matrix(0.9907 -0.1358 0.1358 0.9907 -30.4222 36.1311)" fill="#FFFFFF" stroke="#FFFFFF" stroke-miterlimit="10" cx="249.712" cy="241.13" rx="13.576" ry="22.2"/>
	<path fill="none" stroke="#FFFFFF" stroke-width="10" stroke-linecap="round" stroke-linejoin="round" d="M180.894,289.508
		c0,0,4.465,12.767,12.003,13.844s12.003-11.691,12.003-11.691"/>
	<path fill="none" stroke="#FFFFFF" stroke-width="10" stroke-linecap="round" stroke-linejoin="round" d="M188.754,133.987
		c0,0-60.838,94.223-157.748,85.069"/>
	<path fill="none" stroke="#FFFFFF" stroke-width="10" stroke-linecap="round" stroke-linejoin="round" d="M188.754,133.987
		c0,0,74.746,100.14,146.98,100.14"/>
	<path fill="none" stroke="#FFFFFF" stroke-width="10" stroke-linecap="round" stroke-linejoin="round" d="M135.992,143.598
		c0,0-34.996,31.764-65.145,35.533"/>
	<path fill="none" stroke="#FFFFFF" stroke-width="10" stroke-linecap="round" stroke-linejoin="round" d="M233.44,150.139
		c0,0,11.307,25.304,48.455,41.994"/>
	<path fill="none" stroke="#FFFFFF" stroke-width="10" stroke-linecap="round" stroke-linejoin="round" d="M274.369,155.526
		c0.456,0.703,14.308,21.459,40.787,27.244"/>
	<path fill="none" stroke="#FFFFFF" stroke-width="10" stroke-linecap="round" stroke-linejoin="round" d="M48.339,270.203
		l-29.177,63.529c0,0-12.279-88.307,14.588-213.207c0,0,25.252-17.76,132.93-22.606c0,0-9.152-32.842-2.692-33.918
		s11.844,26.381,11.844,26.381s13.999-31.226,32.304-22.074c0,0,11.306,10.768-22.074,29.611c0,0,104.447-17.229,171.207,5.922
		c0,0,16.152,61.912,13.46,121.672s-12.382,108.754-16.151,124.367c0,0-15.613-76.451-9.153-99.425"/>
	<path fill="none" stroke="#FFFFFF" stroke-width="10" stroke-linecap="round" stroke-linejoin="round" d="M32.407,304.892
		c0,0,0.753,23.453,10.444,32.605c0,0,1.386-17.394,7.692-20.811c0,0,5.768,19.195,10.613,20.811c0,0,13.094-19.225,24.275-18.6"/>
	<path fill="none" stroke="#FFFFFF" stroke-width="10" stroke-linecap="round" stroke-linejoin="round" d="M274.369,324.871
		c0,0,37.138,14.241,44.137,21.779l4.846-25.485c0,0,15.074,15.255,15.074,20.64s8.619-36.912,8.619-36.912"/>
	<path fill="none" stroke="#FFFFFF" stroke-width="10" stroke-linecap="round" stroke-linejoin="round" d="M173.116,323.071v26.81
		c0,0-57.277,0-82.887-12.383c0,0,17.204,32.843,43.059,44.687"/>
	<path fill="none" stroke="#FFFFFF" stroke-width="10" stroke-linecap="round" stroke-linejoin="round" d="M218.369,324.459v25.421
		c0,0,20.408,4.631,66.757-7.537c0,0,2.933,16.69-35.413,39.841"/>
	<path fill="none" stroke="#FFFFFF" stroke-width="6" stroke-linecap="round" stroke-linejoin="round" stroke-miterlimit="10" d="
		M34.158,6.333C33.901,38.993,61.354,39.33,61.354,39.33c0.592-2.942,4.615,30.129,27.816,36.915c0,0-4.895-28.426-1.435-36.915
		c0,0,266.966,8.16,266.898-32.996"/>
</g>
</svg>
